HIERARCHY
ROOT root
{
	OFFSET 0.000000 0.000000 0.000000
	CHANNELS 6 Xposition Yposition Zposition Zrotation Yrotation Xrotation
	JOINT lhip
	{
		OFFSET 0.058581 -0.082280 -0.017664
		CHANNELS 3 Zrotation Yrotation Xrotation
		JOINT lknee
		{
			OFFSET 0.043451 -0.386469 0.008037
			CHANNELS 3 Zrotation Yrotation Xrotation
			JOINT lankle
			{
				OFFSET -0.014790 -0.426874 -0.037428
				CHANNELS 3 Zrotation Yrotation Xrotation
				JOINT ltoe
				{
					OFFSET 0.041054 -0.060286 0.122042
					CHANNELS 3 Zrotation Yrotation Xrotation
					End Site
					{
						OFFSET 0.000000 0.000000 0.000000
					}
				}
			}
		}
	}
	JOINT rhip
	{
		OFFSET -0.060310 -0.090513 -0.013543
		CHANNELS 3 Zrotation Yrotation Xrotation
		JOINT rknee
		{
			OFFSET -0.043257 -0.383688 -0.004843
			CHANNELS 3 Zrotation Yrotation Xrotation
			JOINT rankle
			{
				OFFSET 0.019056 -0.420046 -0.034562
				CHANNELS 3 Zrotation Yrotation Xrotation
				JOINT rtoe
				{
					OFFSET -0.034840 -0.062106 0.130323
					CHANNELS 3 Zrotation Yrotation Xrotation
					End Site
					{
						OFFSET 0.000000 0.000000 0.000000
					}
				}
			}
		}
	}
	JOINT lowerback
	{
		OFFSET 0.004439 0.124404 -0.038385
		CHANNELS 3 Zrotation Yrotation Xrotation
		JOINT upperback
		{
			OFFSET 0.004488 0.137956 0.026820
			CHANNELS 3 Zrotation Yrotation Xrotation
			JOINT chest
			{
				OFFSET -0.002265 0.056032 0.002855
				CHANNELS 3 Zrotation Yrotation Xrotation
				JOINT lowerneck
				{
					OFFSET -0.013390 0.211636 -0.033468
					CHANNELS 3 Zrotation Yrotation Xrotation
					JOINT upperneck
					{
						OFFSET 0.010113 0.088937 0.050410
						CHANNELS 3 Zrotation Yrotation Xrotation
						End Site
						{
							OFFSET 0.000000 0.000000 0.000000
						}
					}
				}
				JOINT lclavicle
				{
					OFFSET 0.071702 0.114000 -0.018898
					CHANNELS 3 Zrotation Yrotation Xrotation
					JOINT lshoulder
					{
						OFFSET 0.122921 0.045205 -0.019046
						CHANNELS 3 Zrotation Yrotation Xrotation
						JOINT lelbow
						{
							OFFSET 0.255332 -0.015649 -0.022946
							CHANNELS 3 Zrotation Yrotation Xrotation
							JOINT lwrist
							{
								OFFSET 0.265709 0.012698 -0.007375
								CHANNELS 3 Zrotation Yrotation Xrotation
								End Site
								{
									OFFSET 0.000000 0.000000 0.000000
								}
							}
						}
					}
				}
				JOINT rclavicle
				{
					OFFSET -0.082954 0.112472 -0.023707
					CHANNELS 3 Zrotation Yrotation Xrotation
					JOINT rshoulder
					{
						OFFSET -0.113228 0.046853 -0.008472
						CHANNELS 3 Zrotation Yrotation Xrotation
						JOINT relbow
						{
							OFFSET -0.260127 -0.014369 -0.031269
							CHANNELS 3 Zrotation Yrotation Xrotation
							JOINT rwrist
							{
								OFFSET -0.269108 0.006794 -0.006027
								CHANNELS 3 Zrotation Yrotation Xrotation
								End Site
								{
									OFFSET 0.000000 0.000000 0.000000
								}
							}
						}
					}
				}
			}
		}
	}
}
MOTION
Frames: 18
Frame Time: 0.033333
1.115430 0.761190 0.998709 -86.109972 3.727463 87.553093 4.082182 0.297314 6.089819 -2.672809 -14.391312 1.987239 5.932121 8.889753 -16.425459 0.000000 -0.000000 0.000000 1.697897 -2.773885 4.559029 4.021850 1.390868 5.160469 3.138768 -4.464596 -11.022412 0.000000 -0.000000 0.000000 -1.146309 1.282787 4.684792 1.464648 -2.380566 -0.473943 1.225631 -2.130739 3.206084 2.641327 1.312693 9.612570 4.767794 -0.297843 1.970942 -26.566642 5.214003 4.605605 -59.401037 -4.890972 5.902596 10.031819 -19.084049 4.759332 -4.866802 1.010881 -7.108849 23.980279 -3.178856 1.753114 61.681501 1.160530 9.471953 -13.903476 19.623492 -2.081081 8.547731 -2.139652 -8.106114 
1.115099 0.761237 0.998309 -86.220652 3.695298 87.274071 4.096793 0.631035 6.351826 -2.660031 -14.252380 2.133231 5.707896 8.465716 -16.483911 0.000000 -0.000000 0.000000 1.584721 -2.917658 4.847038 4.022997 1.249133 5.192578 3.069941 -4.001211 -11.026640 0.000000 -0.000000 0.000000 -1.109803 1.088920 5.006727 1.409950 -2.540893 -0.118648 1.088099 -1.939849 3.010110 2.684860 1.411393 8.777678 4.276024 -0.748959 2.048567 -26.484291 5.636397 3.942238 -59.310848 -4.794887 5.776720 9.793706 -18.883691 4.941178 -4.863055 0.799538 -6.726561 24.205292 -3.298943 1.385272 61.508168 1.426281 9.606364 -13.576061 19.845850 -2.034143 8.155719 -1.551517 -7.826214 
1.114750 0.761078 0.997723 -86.157314 3.679720 87.198378 4.141648 0.654094 6.404484 -2.704108 -14.080745 2.154241 5.639544 8.189056 -16.468132 0.000000 -0.000000 0.000000 1.501137 -2.932991 4.929824 4.118864 1.214299 5.305355 3.017170 -3.850758 -10.945530 0.000000 -0.000000 0.000000 -1.091868 0.901046 4.989372 1.354211 -2.745174 0.187699 1.036741 -1.738025 2.955423 2.695890 1.356532 8.477376 4.042133 -0.914570 1.338716 -26.321011 5.768859 3.625631 -59.685135 -4.926542 5.852860 9.890626 -18.723822 5.042723 -4.887335 0.914452 -6.871452 24.099417 -3.201844 1.295783 62.039663 1.562542 9.666789 -13.954268 19.847649 -2.209325 7.410982 -1.736819 -7.852150 
1.114500 0.760979 0.997487 -86.113089 3.696440 87.208997 4.188674 0.663414 6.328987 -2.729656 -13.976636 2.268698 5.499399 7.971258 -16.555789 0.000000 -0.000000 0.000000 1.551939 -2.973262 4.985204 4.055983 1.177023 5.231380 3.077908 -3.825916 -10.987694 0.000000 -0.000000 0.000000 -1.138794 0.883960 4.922913 1.389245 -2.833407 0.189560 1.098526 -1.730116 2.971525 2.566585 1.197244 7.963117 3.728506 -1.139536 1.214842 -26.494882 5.608255 3.597693 -59.805721 -4.965093 5.961675 9.933269 -18.865826 5.003374 -4.680864 0.762363 -6.755479 24.167849 -2.998338 1.240216 62.169529 1.626975 9.709576 -14.050379 20.309093 -2.552127 7.480379 -1.484027 -8.198821 
1.114361 0.760888 0.997436 -86.091546 3.698612 87.236407 4.197223 0.664240 6.321881 -2.740215 -13.970197 2.276530 5.494303 7.844286 -16.520923 0.000000 -0.000000 0.000000 1.526352 -2.963767 4.973714 4.100520 1.198285 5.243920 3.094114 -3.788089 -11.013805 0.000000 -0.000000 0.000000 -1.140061 0.857170 4.888432 1.401741 -2.851709 0.243410 1.099850 -1.740073 2.923421 2.489627 1.088738 7.769555 3.504841 -1.294604 1.139951 -26.610918 5.616982 3.480971 -59.930804 -5.013445 6.032679 9.963486 -19.110734 5.071651 -4.651791 0.838419 -6.675658 24.308654 -2.964966 1.124670 62.208725 1.753609 9.783648 -14.085042 20.520513 -2.569312 7.349426 -1.646600 -8.052111 
1.114083 0.760662 0.997422 -86.054465 3.693355 87.177786 4.173405 0.698547 6.417699 -2.676813 -13.880794 2.232191 5.431460 7.727846 -16.543953 0.000000 -0.000000 0.000000 1.572918 -2.923503 5.064362 3.986629 1.109424 5.224311 3.032945 -3.926386 -11.103106 0.000000 -0.000000 0.000000 -1.125189 0.793537 4.930028 1.383014 -2.878112 0.216638 1.102809 -1.772600 2.925453 2.378484 0.934655 7.373223 3.221990 -1.434243 1.082158 -26.767600 5.532076 3.350105 -60.086171 -5.162941 6.121886 9.897099 -19.282296 5.215264 -4.726320 0.853631 -6.558604 24.402189 -2.881267 0.991248 62.292303 1.827359 9.925510 -14.021953 20.959416 -2.594509 7.426856 -1.613453 -8.102994 
1.114098 0.760571 0.997389 -86.082737 3.699776 87.193882 4.187204 0.646753 6.397314 -2.701217 -13.765467 2.278435 5.409181 7.660965 -16.515667 0.000000 -0.000000 0.000000 1.549084 -2.868640 5.116641 4.021201 1.163277 5.163577 2.987189 -3.915041 -10.970699 0.000000 -0.000000 0.000000 -1.092468 0.774376 4.835623 1.387091 -2.899714 0.263171 1.099466 -1.783574 2.880751 2.274377 0.782417 7.110360 2.970840 -1.556140 0.993969 -26.922835 5.377186 3.306426 -60.379849 -5.288538 6.291101 9.991996 -19.668944 5.189254 -4.630273 0.820633 -6.869909 24.505295 -2.677331 0.909676 62.477812 2.058586 10.112253 -14.116206 21.089874 -2.477765 7.277024 -1.655473 -8.005765 
1.113680 0.760415 0.997471 -85.983433 3.717496 87.082043 4.192226 0.636671 6.541628 -2.663953 -13.737028 2.298375 5.288067 7.501117 -16.579670 0.000000 -0.000000 0.000000 1.609545 -2.803658 5.430288 3.953949 1.154970 4.882259 3.044730 -3.979508 -10.921784 0.000000 -0.000000 0.000000 -1.060741 0.687957 4.898658 1.388512 -2.962878 0.260245 1.097368 -1.861817 2.869081 2.209562 0.649655 6.611842 2.661620 -1.713071 1.092133 -27.172725 5.238189 3.122848 -60.514784 -5.482112 6.458730 9.871069 -19.828858 5.157202 -4.512295 0.449770 -7.005404 24.669232 -2.485346 0.759720 62.433391 2.176395 10.399813 -13.991271 21.443136 -2.548183 7.224238 -1.325255 -8.246446 
1.114527 0.760400 0.997200 -86.269155 3.638746 87.322122 4.059992 0.595402 6.261327 -2.620982 -13.381512 2.286259 5.392706 7.547905 -16.575793 0.000000 -0.000000 0.000000 1.499524 -2.538021 4.896884 3.997436 1.083489 5.208922 3.086842 -3.996558 -10.934492 0.000000 -0.000000 0.000000 -1.134063 0.789715 4.754635 1.404301 -2.854383 0.129834 1.119641 -1.865296 2.902335 2.158517 0.538200 6.175751 2.344012 -1.853247 1.076261 -27.255908 5.144528 3.080051 -60.822632 -5.650249 6.729159 9.802809 -20.486078 5.296210 -4.448416 0.311454 -7.072412 24.785343 -2.303920 0.732031 62.497663 2.399162 10.667856 -14.090583 21.874243 -2.515193 7.097214 -1.402529 -8.014060 
1.114335 0.760257 0.997181 -86.211666 3.667791 87.292113 4.093345 0.613260 6.340623 -2.596257 -13.315278 2.274883 5.289721 7.328552 -16.508153 0.000000 -0.000000 0.000000 1.547978 -2.413020 5.015624 3.954325 1.011727 5.162970 3.102495 -4.040823 -10.962201 0.000000 -0.000000 0.000000 -1.134196 0.662997 4.775919 1.462507 -2.926548 0.160539 1.180320 -1.861729 2.806521 2.050119 0.319718 5.880892 1.965688 -1.973280 1.030846 -27.425310 4.866092 3.087058 -61.173723 -5.812967 7.006965 9.786616 -21.117496 5.488728 -4.589677 -0.042839 -7.416622 24.906999 -1.963651 0.688693 62.505509 2.695071 10.897893 -13.942432 22.304054 -2.397711 7.045732 -1.278328 -8.002200 
1.114264 0.760113 0.997024 -86.241957 3.636833 87.268607 4.040770 0.641668 6.371126 -2.600355 -13.206915 2.303064 5.308121 7.286098 -16.588044 0.000000 -0.000000 0.000000 1.515682 -2.397537 4.969401 3.922616 0.979072 5.269221 3.097387 -4.085842 -10.996429 0.000000 -0.000000 0.000000 -1.165878 0.653492 4.718833 1.488871 -2.944790 0.183603 1.199059 -1.898018 2.842584 2.009387 0.182054 5.551355 1.658059 -2.129472 1.026604 -27.524007 4.821653 2.928403 -61.352645 -6.034186 7.205929 9.610608 -21.731065 5.717169 -4.476155 0.035988 -7.395665 24.936352 -1.820618 0.560058 62.513060 2.946184 11.061827 -13.825252 22.536256 -2.404550 7.010732 -1.229561 -7.986092 
1.114512 0.759969 0.996958 -86.396873 3.612080 87.342006 3.985537 0.585936 6.285067 -2.628662 -13.068153 2.331640 5.365545 7.336760 -16.594947 0.000000 -0.000000 0.000000 1.493737 -2.249929 4.781961 3.919680 0.994323 5.464414 3.017764 -4.123480 -11.022127 0.000000 -0.000000 0.000000 -1.187108 0.678442 4.633162 1.519948 -2.896783 0.117568 1.210880 -1.880721 2.850089 2.024807 0.057008 5.192997 1.313807 -2.278170 1.052455 -27.683426 4.710992 2.811728 -61.411672 -6.095105 7.511487 9.476435 -22.437927 6.117186 -4.595453 -0.069026 -7.271516 25.001476 -1.641032 0.502870 62.495894 3.199878 11.291217 -13.768330 22.731789 -2.282297 6.951188 -1.229524 -7.874286 
1.114446 0.759738 0.996868 -86.330286 3.641795 87.287451 3.971863 0.535977 6.304378 -2.598434 -13.186015 2.394961 5.442395 7.474713 -16.621433 0.000000 -0.000000 0.000000 1.500402 -2.314227 4.875539 3.903992 1.036980 5.450658 3.091879 -4.063933 -11.018651 0.000000 -0.000000 0.000000 -1.119685 0.635235 4.639424 1.541658 -2.916211 0.150138 1.207612 -1.919369 2.841679 1.934165 -0.061542 4.882178 1.001116 -2.402798 1.046494 -27.714764 4.585475 2.700543 -61.582556 -6.202581 7.686518 9.406308 -22.902552 6.154380 -4.469644 -0.320322 -7.631871 25.062989 -1.502768 0.402528 62.443861 3.408457 11.412677 -13.626891 22.966612 -2.252669 6.754678 -1.329391 -7.855386 
1.114573 0.759522 0.996753 -86.384463 3.659281 87.287602 4.020309 0.597505 6.299422 -2.663867 -13.156443 2.402682 5.311035 7.366849 -16.613494 0.000000 -0.000000 0.000000 1.543396 -2.236378 4.877299 3.875399 1.015970 5.454825 3.044232 -4.103797 -11.041914 0.000000 -0.000000 0.000000 -1.098355 0.599470 4.622616 1.593958 -2.897095 0.212885 1.231692 -1.873022 2.793750 1.878407 -0.192452 4.559651 0.687065 -2.568424 1.034214 -27.839343 4.493780 2.535973 -61.571339 -6.289125 7.873938 9.305877 -23.563106 6.610417 -4.778139 -0.366477 -7.403693 25.138201 -1.343814 0.349761 62.366260 3.528024 11.483598 -13.750868 23.192114 -2.242564 6.940066 -1.196687 -7.667939 
1.114659 0.759315 0.996623 -86.461046 3.649384 87.288314 3.975789 0.605652 6.289874 -2.645643 -13.179592 2.404649 5.294107 7.380655 -16.549874 0.000000 -0.000000 0.000000 1.505511 -2.276704 4.816514 3.874478 1.077973 5.562016 3.083752 -4.049836 -11.144149 0.000000 -0.000000 0.000000 -1.074700 0.635629 4.533825 1.621997 -2.898751 0.273964 1.263424 -1.872787 2.820077 1.762424 -0.269689 4.173566 0.411528 -2.690686 1.074600 -27.868937 4.360030 2.389318 -61.759659 -6.511606 7.936345 9.340956 -23.377072 6.243135 -4.136440 -0.532320 -7.390859 25.113516 -1.181594 0.228575 62.264557 3.622432 11.624581 -13.673749 23.184229 -2.283456 6.683770 -1.097584 -7.728459 
1.115229 0.759049 0.996523 -86.638568 3.589895 87.431956 3.860105 0.580192 6.095048 -2.639008 -13.021594 2.449041 5.469344 7.527659 -16.639343 0.000000 -0.000000 0.000000 1.395119 -2.086166 4.545471 3.930112 1.068626 5.684675 3.069675 -4.047479 -11.070198 0.000000 -0.000000 0.000000 -1.036317 0.699677 4.464437 1.610297 -2.846193 0.168240 1.232076 -1.875440 2.832151 1.760912 -0.407867 3.801712 0.078226 -2.788483 1.101966 -28.011938 4.353552 2.245871 -61.598278 -6.525206 8.000877 9.380912 -23.651618 6.531012 -4.649354 -0.381469 -7.323813 25.207677 -1.138782 0.117535 62.037935 3.657639 11.727920 -13.531144 23.358147 -2.244509 6.808740 -1.045354 -7.555018 
1.114895 0.758879 0.996548 -86.439571 3.623533 87.407361 3.926151 0.561903 6.127021 -2.658351 -13.006845 2.454396 5.300487 7.346393 -16.655478 0.000000 -0.000000 0.000000 1.408789 -2.220919 4.707158 3.960097 1.089418 5.529039 3.128393 -4.105391 -11.058165 0.000000 -0.000000 0.000000 -0.979354 0.629384 4.414590 1.645620 -2.931522 0.195941 1.271152 -1.934427 2.857963 1.682899 -0.547838 3.432887 -0.179591 -2.872721 1.101578 -28.015203 4.379831 2.214134 -61.676821 -6.540914 7.910558 9.408614 -23.552457 6.038835 -4.279871 -0.421037 -7.722602 25.191461 -1.117376 0.066249 61.894790 3.616064 11.762931 -13.485283 23.478245 -2.379775 6.648540 -0.917652 -7.650841 
1.114886 0.758685 0.996372 -86.519357 3.595663 87.481853 3.852298 0.542481 6.033218 -2.645279 -13.035094 2.497382 5.247817 7.430895 -16.604546 0.000000 -0.000000 0.000000 1.367185 -2.103867 4.621096 3.988497 1.076517 5.535223 3.129494 -4.197897 -11.080390 0.000000 -0.000000 0.000000 -0.932758 0.664906 4.281819 1.665342 -2.877693 0.199467 1.262866 -1.966794 2.939997 1.745162 -0.648447 2.984950 -0.544921 -3.006229 1.191241 -28.118627 4.504113 2.042192 -61.522652 -6.470369 7.923071 9.435393 -23.537894 5.960565 -4.069650 -0.304673 -7.554817 25.254223 -1.156642 -0.045100 61.735903 3.705125 11.816418 -13.451210 23.257831 -2.501880 6.482436 -0.931241 -7.425469 
